<svg width="29" height="34" viewBox="0 0 29 34" fill="none" xmlns="http://www.w3.org/2000/svg">
<path d="M0.552 34V0.39999H10.872C16.792 0.39999 21.144 1.90399 23.928 4.91199C26.744 7.91999 28.152 12.048 28.152 17.296C28.152 22.448 26.744 26.528 23.928 29.536C21.144 32.512 16.792 34 10.872 34H0.552ZM4.584 30.64H10.776C14.04 30.64 16.632 30.112 18.552 29.056C20.504 27.968 21.896 26.432 22.728 24.448C23.56 22.432 23.976 20.048 23.976 17.296C23.976 14.48 23.56 12.064 22.728 10.048C21.896 8.03199 20.504 6.47999 18.552 5.39199C16.632 4.30399 14.04 3.75999 10.776 3.75999H4.584V30.64Z" fill="black"/>
</svg>
