<svg width="13" height="13" viewBox="0 0 13 13" fill="none" xmlns="http://www.w3.org/2000/svg">
<g clip-path="url(#clip0_10_59)">
<path d="M9.47922 5.95831C7.53788 5.95831 5.95837 7.53782 5.95837 9.47915C5.95837 11.4205 7.53788 13 9.47922 13C11.4206 13 13.0001 11.4205 13.0001 9.47915C13.0001 7.53782 11.4206 5.95831 9.47922 5.95831ZM9.41151 9.0729H9.54692C10.107 9.0729 10.5626 9.52845 10.5626 10.0885C10.5626 10.5289 10.2787 10.9016 9.88547 11.0419V11.2396C9.88547 11.4638 9.70347 11.6458 9.47922 11.6458C9.25496 11.6458 9.07296 11.4638 9.07296 11.2396V11.1042H8.80213C8.57788 11.1042 8.39588 10.9222 8.39588 10.6979C8.39588 10.4737 8.57788 10.2917 8.80213 10.2917H9.54692C9.65905 10.2917 9.75005 10.2007 9.75005 10.0885C9.75005 9.97641 9.65905 9.88541 9.54692 9.88541H9.41151C8.85142 9.88541 8.39588 9.42986 8.39588 8.86978C8.39588 8.4294 8.67971 8.05673 9.07296 7.91644V7.71873C9.07296 7.49448 9.25496 7.31248 9.47922 7.31248C9.70347 7.31248 9.88547 7.49448 9.88547 7.71873V7.85415H10.1563C10.3806 7.85415 10.5626 8.03615 10.5626 8.2604C10.5626 8.48465 10.3806 8.66665 10.1563 8.66665H9.41151C9.29938 8.66665 9.20838 8.75765 9.20838 8.86978C9.20838 8.9819 9.29938 9.0729 9.41151 9.0729Z" fill="#0957CB"/>
<path d="M9.20833 3.22677V1.08285C9.20833 0.783312 8.96567 0.541188 8.66667 0.541188C8.36767 0.541188 8.125 0.783312 8.125 1.08285V2.16727L6.06612 0.153896C5.85542 -0.0524787 5.51904 -0.0524787 5.30887 0.153896L0.237792 5.11123C0.0866667 5.26398 0 5.4736 0 5.68702C0 6.13497 0.364542 6.49952 0.8125 6.49952H1.625V9.47868C1.625 10.2256 2.23275 10.8328 2.97917 10.8328H4.33333C4.63233 10.8328 4.875 10.5907 4.875 10.2912C4.875 9.99164 4.63233 9.74951 4.33333 9.74951H2.97917C2.82967 9.74951 2.70833 9.62764 2.70833 9.47868V5.95785C2.70833 5.65831 2.46567 5.41618 2.16667 5.41618H1.47496L5.6875 1.29844L9.23596 4.76835C9.45046 4.97798 9.79279 4.97418 10.0019 4.75968C10.211 4.54573 10.2072 4.20285 9.99321 3.99377L9.20833 3.22677Z" fill="#0957CB"/>
</g>
<defs>
<clipPath id="clip0_10_59">
<rect width="13" height="13" fill="white"/>
</clipPath>
</defs>
</svg>
