<svg width="15" height="15" viewBox="0 0 15 15" fill="none" xmlns="http://www.w3.org/2000/svg">
<g clip-path="url(#clip0_23_11)">
<path d="M13.125 10.2625V12.4725C13.1251 12.6307 13.0651 12.7831 12.9572 12.8989C12.8494 13.0146 12.7016 13.0852 12.5437 13.0962C12.2706 13.115 12.0475 13.125 11.875 13.125C6.35188 13.125 1.875 8.64811 1.875 3.12498C1.875 2.95248 1.88438 2.72936 1.90375 2.45623C1.91483 2.29839 1.98536 2.15062 2.10113 2.04274C2.21689 1.93486 2.36926 1.87491 2.5275 1.87498H4.7375C4.81502 1.87491 4.88981 1.90365 4.94733 1.95562C5.00485 2.0076 5.041 2.0791 5.04875 2.15623C5.06313 2.29998 5.07625 2.41436 5.08875 2.50123C5.21296 3.36806 5.4675 4.21113 5.84375 5.00186C5.90313 5.12686 5.86438 5.27623 5.75187 5.35623L4.40313 6.31999C5.22778 8.24152 6.75909 9.77283 8.68062 10.5975L9.64313 9.25124C9.68247 9.19623 9.73986 9.15679 9.80531 9.13977C9.87076 9.12275 9.9401 9.12924 10.0013 9.15811C10.7919 9.53365 11.6347 9.78756 12.5013 9.91123C12.5881 9.92373 12.7025 9.93748 12.845 9.95123C12.922 9.95913 12.9934 9.99534 13.0452 10.0528C13.0971 10.1104 13.1257 10.1851 13.1256 10.2625H13.125Z" fill="#0957CB"/>
</g>
<defs>
<clipPath id="clip0_23_11">
<rect width="15" height="15" fill="white"/>
</clipPath>
</defs>
</svg>
