<svg width="16" height="16" viewBox="0 0 16 16" fill="none" xmlns="http://www.w3.org/2000/svg">
<g clip-path="url(#clip0_10_56)">
<path d="M13.3333 13.3333C13.3333 13.5101 13.2631 13.6797 13.138 13.8047C13.013 13.9298 12.8434 14 12.6666 14H3.33329C3.15648 14 2.98691 13.9298 2.86189 13.8047C2.73686 13.6797 2.66663 13.5101 2.66663 13.3333V7.33333H0.666626L7.55129 1.07466C7.67403 0.962983 7.83401 0.901093 7.99996 0.901093C8.1659 0.901093 8.32589 0.962983 8.44863 1.07466L15.3333 7.33333H13.3333V13.3333ZM7.99996 11.3333L10.2393 9.094C10.3786 8.95471 10.4891 8.78935 10.5645 8.60736C10.6398 8.42537 10.6786 8.23031 10.6786 8.03333C10.6786 7.83635 10.6398 7.64129 10.5645 7.4593C10.4891 7.27731 10.3786 7.11195 10.2393 6.97266C10.1 6.83337 9.93464 6.72289 9.75265 6.6475C9.57066 6.57212 9.37561 6.53332 9.17863 6.53332C8.98164 6.53332 8.78659 6.57212 8.6046 6.6475C8.42261 6.72289 8.25725 6.83337 8.11796 6.97266L7.99996 7.09066L7.88196 6.97266C7.74267 6.83337 7.57731 6.72289 7.39532 6.6475C7.21333 6.57212 7.01828 6.53332 6.82129 6.53332C6.62431 6.53332 6.42925 6.57212 6.24726 6.6475C6.06527 6.72289 5.89991 6.83337 5.76063 6.97266C5.62134 7.11195 5.51085 7.27731 5.43546 7.4593C5.36008 7.64129 5.32128 7.83635 5.32128 8.03333C5.32128 8.23031 5.36008 8.42537 5.43546 8.60736C5.51085 8.78935 5.62134 8.95471 5.76063 9.094L7.99996 11.3333Z" fill="#0957CB"/>
</g>
<defs>
<clipPath id="clip0_10_56">
<rect width="16" height="16" fill="white"/>
</clipPath>
</defs>
</svg>
