<svg width="14" height="14" viewBox="0 0 14 14" fill="none" xmlns="http://www.w3.org/2000/svg">
<path d="M7 4.57764e-05C8.9019 4.57764e-05 9.1392 0.00704574 9.8854 0.0420457C10.6309 0.0770457 11.1384 0.193946 11.585 0.367546C12.047 0.545346 12.4362 0.786146 12.8254 1.17465C13.1813 1.52457 13.4568 1.94786 13.6325 2.41505C13.8054 2.86095 13.923 3.36915 13.958 4.11465C13.9909 4.86085 14 5.09815 14 7.00005C14 8.90195 13.993 9.13925 13.958 9.88545C13.923 10.6309 13.8054 11.1384 13.6325 11.585C13.4573 12.0525 13.1818 12.4759 12.8254 12.8254C12.4754 13.1813 12.0521 13.4567 11.585 13.6325C11.1391 13.8054 10.6309 13.923 9.8854 13.958C9.1392 13.9909 8.9019 14 7 14C5.0981 14 4.8608 13.993 4.1146 13.958C3.3691 13.923 2.8616 13.8054 2.415 13.6325C1.94763 13.4572 1.52427 13.1817 1.1746 12.8254C0.818585 12.4756 0.543152 12.0523 0.3675 11.585C0.1939 11.1391 0.077 10.6309 0.042 9.88545C0.00909996 9.13925 0 8.90195 0 7.00005C0 5.09815 0.00699996 4.86085 0.042 4.11465C0.077 3.36845 0.1939 2.86165 0.3675 2.41505C0.542665 1.94757 0.818163 1.52417 1.1746 1.17465C1.52437 0.818508 1.9477 0.543056 2.415 0.367546C2.8616 0.193946 3.3684 0.0770457 4.1146 0.0420457C4.8608 0.00914574 5.0981 4.57764e-05 7 4.57764e-05ZM7 3.50005C6.07174 3.50005 5.1815 3.86879 4.52513 4.52517C3.86875 5.18155 3.5 6.07179 3.5 7.00005C3.5 7.9283 3.86875 8.81854 4.52513 9.47492C5.1815 10.1313 6.07174 10.5 7 10.5C7.92826 10.5 8.8185 10.1313 9.47487 9.47492C10.1313 8.81854 10.5 7.9283 10.5 7.00005C10.5 6.07179 10.1313 5.18155 9.47487 4.52517C8.8185 3.86879 7.92826 3.50005 7 3.50005ZM11.55 3.32505C11.55 3.09298 11.4578 2.87042 11.2937 2.70633C11.1296 2.54223 10.9071 2.45005 10.675 2.45005C10.4429 2.45005 10.2204 2.54223 10.0563 2.70633C9.89219 2.87042 9.8 3.09298 9.8 3.32505C9.8 3.55711 9.89219 3.77967 10.0563 3.94376C10.2204 4.10786 10.4429 4.20005 10.675 4.20005C10.9071 4.20005 11.1296 4.10786 11.2937 3.94376C11.4578 3.77967 11.55 3.55711 11.55 3.32505ZM7 4.90005C7.55695 4.90005 8.0911 5.12129 8.48492 5.51512C8.87875 5.90895 9.1 6.44309 9.1 7.00005C9.1 7.557 8.87875 8.09114 8.48492 8.48497C8.0911 8.8788 7.55695 9.10005 7 9.10005C6.44305 9.10005 5.9089 8.8788 5.51508 8.48497C5.12125 8.09114 4.9 7.557 4.9 7.00005C4.9 6.44309 5.12125 5.90895 5.51508 5.51512C5.9089 5.12129 6.44305 4.90005 7 4.90005Z" fill="black"/>
</svg>
