<svg width="12" height="12" viewBox="0 0 12 12" fill="none" xmlns="http://www.w3.org/2000/svg">
<path d="M0.666667 4.57764e-05H11.3333C11.5101 4.57764e-05 11.6797 0.0702836 11.8047 0.195308C11.9298 0.320332 12 0.489901 12 0.666712V11.3334C12 11.5102 11.9298 11.6798 11.8047 11.8048C11.6797 11.9298 11.5101 12 11.3333 12H0.666667C0.489856 12 0.320286 11.9298 0.195262 11.8048C0.0702379 11.6798 0 11.5102 0 11.3334V0.666712C0 0.489901 0.0702379 0.320332 0.195262 0.195308C0.320286 0.0702836 0.489856 4.57764e-05 0.666667 4.57764e-05ZM9.53333 8.62671C9.46667 8.59338 9.43333 8.49338 9.43333 8.42605V3.33738C9.43333 3.27071 9.46667 3.17071 9.53333 3.10338L10.17 2.36671V2.33338H7.89333L6.18667 6.65205L4.244 2.33338H1.90133V2.36671L2.50333 3.20405C2.63733 3.33738 2.67067 3.53871 2.67067 3.70605V7.38805C2.704 7.58938 2.67067 7.82338 2.57067 8.02405L1.66667 9.26271V9.29605H4.07733V9.26271L3.17333 8.05805C3.07333 7.85671 3.03933 7.65605 3.07333 7.42205V4.07338C3.10667 4.14005 3.14 4.14005 3.17333 4.27405L5.44933 9.36271H5.48267L7.69333 3.84005C7.66 4.04005 7.66 4.27471 7.66 4.44271V8.39271C7.66 8.49271 7.62667 8.55938 7.56 8.62671L6.89 9.26271V9.29605H10.1707V9.26271L9.53467 8.62671H9.53333Z" fill="black"/>
</svg>
