<svg width="15" height="11" viewBox="0 0 15 11" fill="none" xmlns="http://www.w3.org/2000/svg">
<path d="M14.9993 1.30587C14.4375 1.53 13.8417 1.6772 13.2317 1.74259C13.8747 1.39575 14.3559 0.849905 14.5857 0.206759C13.9823 0.53065 13.3207 0.75764 12.6312 0.880426C12.1681 0.433469 11.5542 0.137045 10.885 0.0372367C10.2158 -0.0625712 9.52875 0.0398294 8.93073 0.328519C8.33271 0.617208 7.85718 1.07601 7.57809 1.6336C7.29899 2.19119 7.23196 2.81633 7.38741 3.41182C6.16374 3.35651 4.96664 3.0697 3.87384 2.57001C2.78104 2.07033 1.81696 1.36895 1.0442 0.511403C0.770671 0.93515 0.626929 1.41686 0.627698 1.90719C0.627698 2.86957 1.17077 3.71979 1.99642 4.21757C1.50781 4.2037 1.02995 4.08468 0.602679 3.87045V3.90496C0.602826 4.54591 0.848731 5.16709 1.2987 5.66317C1.74867 6.15926 2.37501 6.49973 3.07153 6.62684C2.61795 6.73771 2.14235 6.75405 1.68073 6.67463C1.87711 7.22633 2.25987 7.70883 2.77541 8.05456C3.29095 8.4003 3.91346 8.59196 4.55578 8.60271C3.9174 9.05492 3.18645 9.3892 2.40474 9.58645C1.62303 9.7837 0.805873 9.84004 0 9.75226C1.40676 10.5683 3.04437 11.0015 4.71693 11C10.378 11 13.4738 6.77021 13.4738 3.10187C13.4738 2.9824 13.4701 2.86161 13.4642 2.74347C14.0668 2.35066 14.5869 1.86406 15 1.30653L14.9993 1.30587Z" fill="black"/>
</svg>
